HIERARCHY
ROOT Hips
{
	OFFSET 0.000000 71.427986 0.000000
	CHANNELS 6 Xposition Yposition Zposition Xrotation Yrotation Zrotation
	JOINT Pelvis
	{
		OFFSET 0.000000 0.000000 0.000000
		CHANNELS 3 Xrotation Yrotation Zrotation
		JOINT LeftUpLeg
		{
			OFFSET 6.797100 -2.508499 -1.318700
			CHANNELS 3 Xrotation Yrotation Zrotation
			JOINT LeftLeg
			{
				OFFSET 0.069008 -29.241863 0.690200
				CHANNELS 3 Xrotation Yrotation Zrotation
				JOINT LeftFoot
				{
					OFFSET -0.069008 -29.568123 -0.266800
					CHANNELS 3 Xrotation Yrotation Zrotation
					JOINT LeftToeBase
					{
						OFFSET 3.145500 -8.631000 16.059900
						CHANNELS 3 Xrotation Yrotation Zrotation
						End Site
						{
							OFFSET 0.000000 18.501587 0.000000
						}
					}
				}
			}
			JOINT Left_ShortSleeve
			{
				OFFSET 0.265923 -10.480953 1.153800
				CHANNELS 3 Xrotation Yrotation Zrotation
				End Site
				{
					OFFSET 1.725763 19.823879 0.000000
				}
			}
		}
		JOINT RightUpLeg
		{
			OFFSET -6.797100 -2.508499 -1.318700
			CHANNELS 3 Xrotation Yrotation Zrotation
			JOINT RightLeg
			{
				OFFSET -0.082453 -29.241932 0.688000
				CHANNELS 3 Xrotation Yrotation Zrotation
				JOINT RightFoot
				{
					OFFSET 0.082453 -29.568058 -0.264600
					CHANNELS 3 Xrotation Yrotation Zrotation
					JOINT RightToeBase
					{
						OFFSET -3.115300 -8.682800 16.113400
						CHANNELS 3 Xrotation Yrotation Zrotation
						End Site
						{
							OFFSET 0.000000 18.567114 0.000000
						}
					}
				}
			}
			JOINT Right_ShortSleeve
			{
				OFFSET -0.265923 -10.480953 1.153800
				CHANNELS 3 Xrotation Yrotation Zrotation
				End Site
				{
					OFFSET -1.725766 19.823910 0.000000
				}
			}
		}
	}
	JOINT Spine
	{
		OFFSET 0.000000 13.368103 0.470500
		CHANNELS 3 Xrotation Yrotation Zrotation
		JOINT Spine1
		{
			OFFSET 0.147000 13.837402 0.538800
			CHANNELS 3 Xrotation Yrotation Zrotation
			JOINT Spine2
			{
				OFFSET 0.168000 16.242897 -1.435500
				CHANNELS 3 Xrotation Yrotation Zrotation
				JOINT Neck
				{
					OFFSET 0.217200 18.631500 -1.679100
					CHANNELS 3 Xrotation Yrotation Zrotation
					JOINT Head
					{
						OFFSET 0.000000 6.599396 1.385900
						CHANNELS 3 Xrotation Yrotation Zrotation
						JOINT Hat
						{
							OFFSET -0.532200 27.220596 -10.096100
							CHANNELS 3 Xrotation Yrotation Zrotation
							End Site
							{
								OFFSET 0.000000 22.029861 0.000000
							}
						}
						JOINT HairD
						{
							OFFSET -10.777400 17.437393 -1.325900
							CHANNELS 3 Xrotation Yrotation Zrotation
							JOINT HairD1
							{
								OFFSET -3.290299 -11.051193 1.062200
								CHANNELS 3 Xrotation Yrotation Zrotation
								End Site
								{
									OFFSET 0.000000 11.579437 0.000000
								}
							}
						}
						JOINT HairB
						{
							OFFSET -10.777400 17.437393 1.467900
							CHANNELS 3 Xrotation Yrotation Zrotation
							JOINT HairB1
							{
								OFFSET -1.561200 -12.956299 3.590200
								CHANNELS 3 Xrotation Yrotation Zrotation
								End Site
								{
									OFFSET 0.000000 13.534866 0.000000
								}
							}
						}
						JOINT HairA
						{
							OFFSET 9.713100 17.437393 1.467900
							CHANNELS 3 Xrotation Yrotation Zrotation
							JOINT HairA1
							{
								OFFSET 1.561200 -12.956299 3.590200
								CHANNELS 3 Xrotation Yrotation Zrotation
								End Site
								{
									OFFSET 0.000000 13.534866 0.000000
								}
							}
						}
						JOINT HairC
						{
							OFFSET 9.713100 17.437393 -1.325900
							CHANNELS 3 Xrotation Yrotation Zrotation
							JOINT HairC1
							{
								OFFSET 3.290300 -11.051193 1.062200
								CHANNELS 3 Xrotation Yrotation Zrotation
								End Site
								{
									OFFSET 0.000000 11.579437 0.000000
								}
							}
						}
					}
				}
				JOINT LeftShoulder
				{
					OFFSET 5.101800 15.108002 -2.763700
					CHANNELS 3 Xrotation Yrotation Zrotation
					JOINT LeftArm
					{
						OFFSET 9.825497 2.506317 -1.597400
						CHANNELS 3 Xrotation Yrotation Zrotation
						JOINT LeftForeArm
						{
							OFFSET 21.966244 0.000000 0.000000
							CHANNELS 3 Xrotation Yrotation Zrotation
							JOINT LeftHand
							{
								OFFSET 33.879036 0.000000 0.000000
								CHANNELS 3 Xrotation Yrotation Zrotation
								JOINT LeftHandThumb1
								{
									OFFSET 6.715286 -2.359680 3.363841
									CHANNELS 3 Xrotation Yrotation Zrotation
									JOINT LeftHandThumb2
									{
										OFFSET 2.507072 -1.447464 1.447461
										CHANNELS 3 Xrotation Yrotation Zrotation
										JOINT LeftHandThumb3
										{
											OFFSET 2.898338 -1.673355 1.673357
											CHANNELS 3 Xrotation Yrotation Zrotation
											End Site
											{
												OFFSET -0.295959 3.727692 -0.131651
											}
										}
									}
								}
								JOINT LeftHandIndex1
								{
									OFFSET 14.190811 -0.254547 3.840278
									CHANNELS 3 Xrotation Yrotation Zrotation
									JOINT LeftHandIndex2
									{
										OFFSET 3.551727 0.000000 -0.000000
										CHANNELS 3 Xrotation Yrotation Zrotation
										JOINT LeftHandIndex3
										{
											OFFSET 2.894196 0.000000 0.000000
											CHANNELS 3 Xrotation Yrotation Zrotation
											End Site
											{
												OFFSET -1.000603 2.690872 0.366626
											}
										}
									}
								}
								JOINT LeftHandMiddle1
								{
									OFFSET 13.776489 0.000000 0.000000
									CHANNELS 3 Xrotation Yrotation Zrotation
									JOINT LeftHandMiddle2
									{
										OFFSET 3.438232 0.000000 0.000000
										CHANNELS 3 Xrotation Yrotation Zrotation
										JOINT LeftHandMiddle3
										{
											OFFSET 3.691551 0.000000 0.000000
											CHANNELS 3 Xrotation Yrotation Zrotation
											End Site
											{
												OFFSET -1.082298 3.499527 0.457670
											}
										}
									}
								}
								JOINT LeftHandRing1
								{
									OFFSET 13.966164 -0.268127 -3.067488
									CHANNELS 3 Xrotation Yrotation Zrotation
									JOINT LeftHandRing2
									{
										OFFSET 3.162567 0.000000 0.000000
										CHANNELS 3 Xrotation Yrotation Zrotation
										JOINT LeftHandRing3
										{
											OFFSET 3.324348 0.000000 0.000000
											CHANNELS 3 Xrotation Yrotation Zrotation
											End Site
											{
												OFFSET -0.861900 3.184998 0.405154
											}
										}
									}
								}
								JOINT LeftHandPinky1
								{
									OFFSET 13.131393 -0.168503 -5.746925
									CHANNELS 3 Xrotation Yrotation Zrotation
									JOINT LeftHandPinky2
									{
										OFFSET 2.849182 0.000000 0.000000
										CHANNELS 3 Xrotation Yrotation Zrotation
										JOINT LeftHandPinky3
										{
											OFFSET 2.805038 0.000000 0.000000
											CHANNELS 3 Xrotation Yrotation Zrotation
											End Site
											{
												OFFSET -0.882500 2.642609 0.325652
											}
										}
									}
								}
							}
							JOINT Left_Sleeve
							{
								OFFSET 6.592125 -0.646545 0.805568
								CHANNELS 3 Xrotation Yrotation Zrotation
								End Site
								{
									OFFSET -0.000179 20.275787 -0.000000
								}
							}
						}
					}
				}
				JOINT RightShoulder
				{
					OFFSET -5.731700 15.108002 -2.763700
					CHANNELS 3 Xrotation Yrotation Zrotation
					JOINT RightArm
					{
						OFFSET -9.825497 2.506317 -1.597400
						CHANNELS 3 Xrotation Yrotation Zrotation
						JOINT RightForeArm
						{
							OFFSET -21.966242 0.000000 0.000000
							CHANNELS 3 Xrotation Yrotation Zrotation
							JOINT RightHand
							{
								OFFSET -33.879032 0.000000 0.000000
								CHANNELS 3 Xrotation Yrotation Zrotation
								JOINT RightHandThumb1
								{
									OFFSET -6.715286 -2.359680 3.363841
									CHANNELS 3 Xrotation Yrotation Zrotation
									JOINT RightHandThumb2
									{
										OFFSET -2.507072 -1.447464 1.447461
										CHANNELS 3 Xrotation Yrotation Zrotation
										JOINT RightHandThumb3
										{
											OFFSET -2.898338 -1.673355 1.673357
											CHANNELS 3 Xrotation Yrotation Zrotation
											End Site
											{
												OFFSET 0.295959 3.727692 -0.131651
											}
										}
									}
								}
								JOINT RightHandIndex1
								{
									OFFSET -14.190811 -0.254547 3.840278
									CHANNELS 3 Xrotation Yrotation Zrotation
									JOINT RightHandIndex2
									{
										OFFSET -3.551727 0.000000 -0.000000
										CHANNELS 3 Xrotation Yrotation Zrotation
										JOINT RightHandIndex3
										{
											OFFSET -2.894196 0.000000 0.000000
											CHANNELS 3 Xrotation Yrotation Zrotation
											End Site
											{
												OFFSET 1.000603 2.690872 0.366626
											}
										}
									}
								}
								JOINT RightHandMiddle1
								{
									OFFSET -13.776489 0.000000 0.000000
									CHANNELS 3 Xrotation Yrotation Zrotation
									JOINT RightHandMiddle2
									{
										OFFSET -3.438232 0.000000 0.000000
										CHANNELS 3 Xrotation Yrotation Zrotation
										JOINT RightHandMiddle3
										{
											OFFSET -3.691551 0.000000 0.000000
											CHANNELS 3 Xrotation Yrotation Zrotation
											End Site
											{
												OFFSET 1.082298 3.499527 0.457670
											}
										}
									}
								}
								JOINT RightHandRing1
								{
									OFFSET -13.966164 -0.268127 -3.067488
									CHANNELS 3 Xrotation Yrotation Zrotation
									JOINT RightHandRing2
									{
										OFFSET -3.162567 0.000000 0.000000
										CHANNELS 3 Xrotation Yrotation Zrotation
										JOINT RightHandRing3
										{
											OFFSET -3.324348 0.000000 0.000000
											CHANNELS 3 Xrotation Yrotation Zrotation
											End Site
											{
												OFFSET 0.861900 3.184998 0.405154
											}
										}
									}
								}
								JOINT RightHandPinky1
								{
									OFFSET -13.131393 -0.168503 -5.746925
									CHANNELS 3 Xrotation Yrotation Zrotation
									JOINT RightHandPinky2
									{
										OFFSET -2.849182 0.000000 0.000000
										CHANNELS 3 Xrotation Yrotation Zrotation
										JOINT RightHandPinky3
										{
											OFFSET -2.805038 0.000000 0.000000
											CHANNELS 3 Xrotation Yrotation Zrotation
											End Site
											{
												OFFSET 0.882500 2.642609 0.325652
											}
										}
									}
								}
							}
							JOINT Right_Sleeve
							{
								OFFSET -6.592125 -0.646545 0.805568
								CHANNELS 3 Xrotation Yrotation Zrotation
								End Site
								{
									OFFSET 0.000179 20.275787 -0.000000
								}
							}
						}
					}
				}
				JOINT Bind_Right_JacketString
				{
					OFFSET -3.534800 11.969597 7.200700
					CHANNELS 3 Xrotation Yrotation Zrotation
					JOINT Bind_Right_JacketString1
					{
						OFFSET -0.319900 -6.102600 2.794100
						CHANNELS 3 Xrotation Yrotation Zrotation
						End Site
						{
							OFFSET 0.000000 6.719452 0.000000
						}
					}
				}
				JOINT Bind_Left_JacketString
				{
					OFFSET 2.904800 11.969597 7.200700
					CHANNELS 3 Xrotation Yrotation Zrotation
					JOINT Bind_Left_JacketString1
					{
						OFFSET 0.364800 -5.904503 3.186800
						CHANNELS 3 Xrotation Yrotation Zrotation
						End Site
						{
							OFFSET 0.000000 6.719513 0.000000
						}
					}
				}
				JOINT HairE
				{
					OFFSET 5.915200 17.612701 -11.592200
					CHANNELS 3 Xrotation Yrotation Zrotation
					JOINT HairE1
					{
						OFFSET 0.289200 -7.171898 -1.284500
						CHANNELS 3 Xrotation Yrotation Zrotation
						End Site
						{
							OFFSET 0.000000 7.291756 0.000000
						}
					}
				}
				JOINT HairF
				{
					OFFSET -0.864800 17.612701 -11.592200
					CHANNELS 3 Xrotation Yrotation Zrotation
					JOINT HairF1
					{
						OFFSET 0.000000 -14.087097 -2.127501
						CHANNELS 3 Xrotation Yrotation Zrotation
						End Site
						{
							OFFSET 0.000000 14.246841 0.000000
						}
					}
				}
				JOINT HairG
				{
					OFFSET -8.087700 17.612701 -11.592200
					CHANNELS 3 Xrotation Yrotation Zrotation
					JOINT HairG1
					{
						OFFSET -0.293600 -6.081398 -0.910100
						CHANNELS 3 Xrotation Yrotation Zrotation
						End Site
						{
							OFFSET 0.000000 6.156120 0.000000
						}
					}
				}
			}
		}
	}
	JOINT Pouch
	{
		OFFSET 0.000000 4.394501 10.847300
		CHANNELS 3 Xrotation Yrotation Zrotation
		End Site
		{
			OFFSET 0.000000 21.880577 0.000000
		}
	}
	JOINT Bag
	{
		OFFSET -13.229000 4.813004 -0.593300
		CHANNELS 3 Xrotation Yrotation Zrotation
		End Site
		{
			OFFSET 0.000000 21.880577 0.000000
		}
	}
	JOINT OccupyGuyFacialAnim_Joint
	{
		OFFSET 1.000000 -70.206398 -1.655000
		CHANNELS 3 Xrotation Yrotation Zrotation
		End Site
		{
			OFFSET 0.000000 21.880577 0.000000
		}
	}
}
MOTION
Frames: 4
Frame Time: 0.033333
21.511475 67.305641 -43.111008 154.507581 -257.926958 210.688988 0.000000 0.000001 -0.000000 -15.248257 -11.660473 -12.180572 40.336256 -11.218884 -7.166615 -22.210935 -7.187995 7.093307 0.000000 0.000001 -0.000000 -0.000000 0.000001 0.000000 -36.366338 -8.054340 9.201315 62.907825 8.637993 3.298690 10.376143 -3.301466 -5.024587 -0.000002 0.000001 0.000001 -0.000004 -0.000001 -0.000001 4.070291 -0.220433 0.924048 1.672285 0.009204 -3.440276 1.674615 -0.021952 -3.438571 4.596748 1.029936 1.732110 14.704023 7.979834 -3.504934 0.000001 0.000000 -0.000000 0.000001 0.000000 -0.000000 0.000001 0.000000 -0.000000 0.000001 0.000000 -0.000000 -0.000001 -0.000000 -0.000000 0.000001 0.000000 -0.000000 -0.000001 -0.000000 -0.000000 0.000001 0.000000 -0.000000 0.000001 0.000000 -0.000000 1.377019 -2.068279 -5.708340 21.870472 -16.148922 -39.472524 0.000093 -74.120455 0.000089 18.491537 17.307471 4.502576 -2.402117 4.870092 15.098813 4.869972 19.561962 1.589537 -0.000000 -0.000000 -0.000000 0.117050 -2.311917 3.042490 0.038242 0.726191 -6.028945 0.000002 0.000000 0.000002 0.000148 -0.045038 0.373214 0.024449 0.580980 -4.820095 -0.000000 -0.000001 0.000004 0.006684 0.303897 -2.519058 0.029666 0.639789 -5.309321 0.000000 0.000001 -0.000003 0.735987 7.946624 -5.080731 0.025214 -3.341504 -6.427906 0.000001 0.000000 0.000001 0.000000 -0.000000 -0.000000 7.046824 20.040678 0.746137 21.926891 8.217469 50.303783 -0.000037 50.382682 0.000037 0.062692 3.859666 4.296279 -1.952991 -12.901472 -7.573652 5.585046 -19.316313 -0.939509 0.000000 0.000001 0.000006 -0.183950 -1.042016 23.761557 0.245394 -1.834427 15.236856 -0.000001 0.000003 -0.000003 0.480125 -2.543425 21.376648 0.235577 -1.798045 14.927122 -0.000000 -0.000003 0.000001 0.612349 -2.857934 24.182315 0.196518 -1.644633 13.627109 -0.000001 -0.000001 -0.000001 2.692862 -6.256126 32.320103 0.093687 -1.139916 9.396976 0.000003 0.000001 0.000001 0.000001 0.000000 -0.000000 0.000000 0.000001 0.000000 0.000000 0.000001 -0.000000 0.000000 0.000001 -0.000000 0.000000 0.000001 -0.000000 0.000000 0.000001 0.000000 0.000000 0.000001 -0.000000 0.000000 0.000001 -0.000000 0.000000 0.000001 -0.000000 0.000000 0.000001 0.000000 0.000000 0.000001 -0.000000 0.000000 0.000001 -0.000000 0.000000 0.000001 -0.000000 0.000000 0.000001 -0.000000 
21.475109 67.545845 -45.503872 161.389789 -259.085468 204.188259 -0.000000 0.000000 -0.000000 -14.882270 -8.100900 -12.948258 37.041236 -11.191355 -7.612932 -22.336073 -0.840271 10.498074 0.000000 0.000001 -0.000000 0.000001 0.000001 -0.000002 -35.498283 -11.741057 8.507099 59.878964 7.173062 7.641709 14.853870 -4.756966 -6.498441 -0.000001 0.000000 0.000000 -0.000002 -0.000001 0.000000 2.005334 0.244429 1.646869 1.926744 0.052388 -3.580648 1.933308 0.028249 -3.577978 4.368448 0.971292 1.269593 15.764474 7.140057 -4.399644 0.000001 -0.000000 -0.000000 0.000001 -0.000000 -0.000000 0.000001 -0.000000 -0.000000 0.000001 -0.000000 -0.000000 0.000001 -0.000000 -0.000000 0.000001 -0.000000 -0.000000 0.000001 -0.000000 -0.000000 0.000001 -0.000000 -0.000000 0.000001 -0.000000 -0.000000 1.289769 -2.126591 -4.290168 25.090275 -14.928171 -37.687478 0.000006 -74.296086 0.000010 20.963159 16.942474 3.122857 -2.402119 4.870091 15.098818 4.869973 19.561964 1.589534 0.000002 -0.000002 0.000000 0.094285 -2.243907 2.469618 0.043048 0.770326 -6.396897 0.000000 0.000000 0.000002 0.000003 0.007376 -0.061118 0.027759 0.618939 -5.135836 0.000000 0.000000 0.000001 0.008950 0.351637 -2.915101 0.032260 0.667140 -5.537040 -0.000001 0.000001 -0.000001 0.799531 7.995234 -5.538986 0.026636 -3.328997 -6.532124 -0.000000 -0.000001 0.000003 -0.000002 -0.000001 -0.000000 6.765856 19.603461 0.618192 24.837232 7.999294 45.730927 -0.000020 53.245389 0.000005 0.078364 3.149746 3.998368 -1.952990 -12.901470 -7.573658 5.585051 -19.316311 -0.939512 0.000002 -0.000002 0.000000 -0.185883 -1.028584 23.654311 0.248145 -1.844533 15.322812 0.000002 0.000002 0.000001 0.478599 -2.539549 21.342424 0.238953 -1.810666 15.034508 0.000004 -0.000002 -0.000001 0.613953 -2.861492 24.214458 0.201574 -1.665325 13.801924 0.000001 -0.000001 0.000002 2.704394 -6.263934 32.425883 0.098978 -1.171359 9.658769 0.000002 0.000001 -0.000003 -0.000002 0.000000 0.000001 0.000000 -0.000000 0.000000 0.000000 -0.000000 0.000000 0.000000 -0.000000 0.000000 0.000000 -0.000000 0.000000 0.000000 -0.000000 0.000000 0.000000 -0.000000 0.000000 0.000000 -0.000000 0.000000 0.000000 -0.000000 0.000000 0.000000 -0.000000 0.000000 0.000000 -0.000000 0.000000 -0.000000 0.000000 -0.000000 -0.000000 0.000000 -0.000000 -0.000000 0.000000 -0.000000 
21.509731 67.874191 -47.643581 170.315493 -259.658603 195.304232 0.000000 0.000001 -0.000000 -13.312143 -3.553525 -11.963802 32.600223 -11.204973 -9.248957 -23.700808 7.207812 14.163184 0.000000 0.000001 0.000000 -0.000002 0.000001 -0.000000 -32.657552 -14.171311 8.450296 53.990579 6.629789 11.145370 15.849874 -3.252453 -8.632715 0.000001 0.000000 0.000002 0.000001 0.000002 -0.000000 -0.078612 0.670416 2.275807 2.145422 0.093403 -3.390435 2.155272 0.076758 -3.386153 3.867918 0.848520 1.142568 17.056265 6.406656 -5.060062 0.000000 0.000000 0.000000 0.000000 0.000000 0.000000 0.000000 0.000000 0.000000 0.000000 0.000000 0.000000 0.000000 0.000000 -0.000000 0.000000 0.000000 0.000000 0.000000 0.000000 -0.000000 0.000000 0.000000 0.000000 0.000000 0.000000 0.000000 1.205591 -2.315137 -2.699555 30.671692 -12.075663 -37.362170 0.000120 -77.472520 0.000119 25.102707 16.817688 1.293853 -2.402119 4.870091 15.098816 4.869970 19.561962 1.589534 -0.000000 0.000001 0.000003 0.073282 -2.179087 1.925418 0.049574 0.826453 -6.865202 0.000001 0.000001 -0.000003 0.000273 0.061549 -0.510039 0.032711 0.671749 -5.575394 0.000001 0.000000 -0.000003 0.011978 0.406805 -3.372959 0.037209 0.716357 -5.946943 -0.000000 0.000000 -0.000002 0.881280 8.056583 -6.124469 0.031876 -3.284566 -6.902561 -0.000000 0.000001 0.000001 0.000002 -0.000003 0.000002 6.405219 19.025769 0.400603 28.410286 7.781284 40.226679 -0.000017 58.264915 0.000013 0.662743 1.993864 4.018343 -1.952987 -12.901472 -7.573660 5.585049 -19.316318 -0.939503 -0.000001 -0.000002 0.000003 -0.189524 -1.002791 23.448162 0.245322 -1.834184 15.234763 0.000002 0.000002 0.000001 0.472297 -2.523336 21.199348 0.237220 -1.804208 14.979660 -0.000001 0.000001 -0.000001 0.608373 -2.849060 24.102302 0.201716 -1.665946 13.807233 0.000001 -0.000002 -0.000002 2.692588 -6.255928 32.317484 0.100731 -1.181669 9.744636 -0.000003 0.000000 0.000002 0.000001 -0.000000 0.000001 0.000000 -0.000000 0.000000 0.000000 -0.000000 0.000000 0.000000 -0.000000 0.000000 0.000000 -0.000000 0.000000 0.000000 -0.000000 0.000000 0.000000 -0.000000 0.000000 0.000000 -0.000000 0.000000 0.000000 -0.000000 0.000000 0.000000 -0.000000 0.000000 0.000000 -0.000000 0.000000 0.000000 0.000001 -0.000000 0.000000 0.000001 -0.000000 0.000000 0.000001 -0.000000 
21.571035 68.121857 -49.601807 177.193385 -260.334573 188.609076 -0.000000 0.000000 -0.000000 -10.958304 0.927084 -10.854351 27.912975 -11.136346 -11.825000 -26.900794 14.114395 18.889108 0.000001 0.000000 0.000000 -0.000001 0.000000 -0.000000 -28.349368 -15.101854 9.508232 46.596483 6.584758 11.763627 12.210683 0.197053 -12.329902 0.000000 -0.000000 0.000000 -0.000002 -0.000001 0.000001 -1.922029 1.085399 2.639976 2.347757 0.142395 -2.787118 2.358519 0.131459 -2.779985 3.057983 0.617025 1.299037 17.899569 5.498670 -5.112099 0.000000 0.000000 0.000000 0.000000 0.000000 0.000000 0.000000 0.000000 0.000000 0.000000 0.000000 0.000000 0.000000 0.000000 -0.000000 0.000000 0.000000 0.000000 0.000000 0.000000 -0.000000 0.000000 0.000000 0.000000 0.000000 0.000000 0.000000 1.161198 -2.664323 -1.246431 37.837797 -8.388486 -38.839686 0.000111 -83.301035 0.000127 29.489939 16.729375 -0.785618 -2.402117 4.870090 15.098818 4.869974 19.561964 1.589537 0.000000 0.000001 -0.000001 0.056113 -2.124472 1.468218 0.056196 0.879721 -7.310100 -0.000000 0.000001 -0.000000 0.000862 0.108961 -0.902928 0.038083 0.724684 -6.016373 -0.000000 0.000001 0.000001 0.015147 0.457395 -3.793003 0.043095 0.770745 -6.400345 -0.000002 0.000001 -0.000002 0.958339 8.113233 -6.672373 0.038987 -3.227874 -7.375632 0.000000 -0.000000 0.000001 0.000000 0.000002 0.000000 5.958394 18.315431 0.091930 32.167708 7.639571 35.067909 -0.000083 65.037232 0.000107 1.907396 0.450085 4.586317 -1.952988 -12.901470 -7.573665 5.585047 -19.316315 -0.939516 0.000001 0.000000 -0.000000 -0.191335 -0.989731 23.343812 0.239932 -1.814299 15.065480 0.000002 0.000000 0.000000 0.467447 -2.510814 21.088885 0.232903 -1.787983 14.841726 -0.000001 -0.000000 -0.000001 0.601320 -2.833247 23.959875 0.198290 -1.651935 13.688740 -0.000004 -0.000002 -0.000002 2.669908 -6.240473 32.109112 0.098928 -1.171105 9.656637 -0.000001 0.000001 0.000001 -0.000001 0.000001 -0.000003 -0.000000 -0.000000 -0.000000 -0.000000 -0.000000 -0.000000 -0.000000 -0.000000 0.000000 -0.000000 -0.000000 0.000000 -0.000000 -0.000000 -0.000000 -0.000000 -0.000000 -0.000000 -0.000000 -0.000000 0.000000 -0.000000 -0.000000 0.000000 -0.000000 -0.000000 -0.000000 -0.000000 -0.000000 -0.000000 -0.000000 0.000000 -0.000000 -0.000000 0.000000 -0.000000 -0.000000 0.000000 -0.000000 
